<?xml version="1.0" encoding="utf-8"?>
<!-- Generator: Adobe Illustrator 24.3.0, SVG Export Plug-In . SVG Version: 6.00 Build 0)  -->
<svg version="1.1" id="Calque_1" xmlns="http://www.w3.org/2000/svg" xmlns:xlink="http://www.w3.org/1999/xlink" x="0px" y="0px"
	 viewBox="0 0 162.8 162.8" style="enable-background:new 0 0 162.8 162.8;" xml:space="preserve">
<style type="text/css">
	.st0{fill:#1D1D1B;stroke:#1D1D1B;stroke-miterlimit:10;}
</style>
<g id="Calque_2_1_">
	<g id="Calque_1-2">
		<path class="st0" d="M81.3,0.5C36.6,0.5,0.4,36.7,0.4,81.4s36.2,80.9,80.9,80.9s80.9-36.2,80.9-80.9l0,0
			C162.2,36.7,126,0.5,81.3,0.5z M81.3,157.8c-42.2,0-76.4-34.2-76.4-76.4S39.1,5,81.3,5c43.1,0.1,76.5,34.2,76.4,76.4
			C157.7,123.6,123.5,157.8,81.3,157.8z"/>
		<polygon class="st0" points="81.4,80.8 89.5,80.9 89.5,58.8 80.2,58.8 64.6,77.1 51.7,58.8 41.5,58.8 41.5,104 49.9,104 
			49.9,71.3 64.7,91.1 66.2,91.1 81.4,71.3 		"/>
		<path class="st0" d="M98.9,66c4.4,0.1,8.8,0.2,13.1,0.3c0,1.3,0,3,0,5.1c-0.1,13.2-0.2,19.8-3.3,22.7c-4.2,3.8-12.3,3.3-15.9,0
			c-3.3-3.1-3.5-9.6-3.5-9.6h-8.1c-0.9,10.9,7.3,17.6,11.1,18.8s12.1,3.1,20.4-2.1s8.4-14.5,8.4-14.5V58.1H98.9
			C98.9,60.8,98.9,63.4,98.9,66z"/>
	</g>
</g>
</svg>
